<?xml version="1.0" encoding="UTF-8"?>
<svg id="Layer_1" data-name="Layer 1" xmlns="http://www.w3.org/2000/svg" viewBox="0 0 48 48">
  <defs>
    <style>
      .cls-1 {
        fill: #000;
        stroke-width: 0px;
      }
    </style>
  </defs>
  <path class="cls-1" d="M45.673,36.505L28.33,6.498c-.904-1.564-2.522-2.498-4.33-2.498s-3.426.934-4.33,2.498L2.327,36.506c-.903,1.563-.903,3.43,0,4.994.903,1.565,2.522,2.5,4.331,2.5h34.686c1.809,0,3.428-.935,4.331-2.5.902-1.564.902-3.431,0-4.995ZM27.923,23.073l-3.945,9.323h1.759c.447,0,.669.541.352.855l-4.655,4.604c-.257.254-.691.16-.819-.178l-1.746-4.604c-.124-.327.118-.677.468-.677h1.434l1.544-6.918h-2.727c-.354,0-.605-.345-.496-.682l3.372-10.435c.07-.215.27-.361.496-.361h3.077c.354,0,.605.345.496.682l-2.477,7.666h3.387c.374,0,.626.381.48.725Z"/>
</svg>