<?xml version="1.0" encoding="UTF-8"?>
<!DOCTYPE svg PUBLIC "-//W3C//DTD SVG 1.1//EN" "http://www.w3.org/Graphics/SVG/1.1/DTD/svg11.dtd">
<!-- Creator: CorelDRAW -->
<svg xmlns="http://www.w3.org/2000/svg" xml:space="preserve" width="2048px" height="2048px" style="shape-rendering:geometricPrecision; text-rendering:geometricPrecision; image-rendering:optimizeQuality; fill-rule:evenodd; clip-rule:evenodd"
viewBox="0 0 2048 2048"
 xmlns:xlink="http://www.w3.org/1999/xlink">
 <defs>
  <style type="text/css">
   <![CDATA[
    .fil1 {fill:none}
    .fil0 {fill:#424242;fill-rule:nonzero}
   ]]>
  </style>
 </defs>
 <g id="Layer_x0020_1">
  <metadata id="CorelCorpID_0Corel-Layer"/>
  <path class="fil0" d="M1249.18 1579.78c19.0358,13.6854 39.1737,25.2721 60.2162,34.5071 37.6122,16.5059 77.8843,25.4646 119.708,25.4646 101.789,0 193.401,-52.3441 259.227,-136.968 64.05,-82.3406 103.668,-195.654 103.668,-320.418 0,-124.763 -39.6177,-238.077 -103.668,-320.418 -65.8264,-84.6237 -157.439,-136.968 -259.227,-136.968 -42.1335,0 -82.6276,9.04371 -120.371,25.7008 -20.7791,9.17127 -40.6973,20.6717 -59.563,34.2544 19.0949,17.5807 36.6685,37.1693 52.5225,58.3158 72.228,96.3355 106.308,219.618 106.308,339.11 0,119.493 -34.0796,242.775 -106.308,339.111 -15.8516,21.1429 -33.4217,40.728 -52.513,58.3075z"/>
  <path class="fil0" d="M800.033 785.803c-19.2225,-13.9618 -39.5457,-25.7587 -60.7678,-35.126 -37.7433,-16.6571 -78.2375,-25.7008 -120.371,-25.7008 -101.789,0 -193.401,52.3441 -259.227,136.968 -64.05,82.3406 -103.668,195.654 -103.668,320.418 0,124.763 39.6177,238.077 103.668,320.418 65.8264,84.6237 157.439,136.968 259.227,136.968 41.824,0 82.0961,-8.95867 119.708,-25.4646 21.4878,-9.42993 42.0307,-21.313 61.4209,-35.3788 -18.7252,-17.354 -35.9717,-36.6437 -51.5611,-57.4359 -72.228,-96.3367 -106.308,-219.618 -106.308,-339.111 0,-119.492 34.0796,-242.775 106.308,-339.11 15.5917,-20.7957 32.8418,-40.089 51.5705,-57.4441z"/>
  <path class="fil0" d="M1172.63 464.629c13.4622,-11.3906 15.1406,-31.539 3.75,-45.0012 -11.3906,-13.4622 -31.539,-15.1406 -45.0012,-3.75 -39.7311,33.6579 -77.8701,79.9548 -103.852,143.283 -20.9032,50.9504 -33.8185,112.781 -33.0756,187.671 0.138189,17.6043 14.5217,31.7634 32.126,31.6252 17.6043,-0.138189 31.7634,-14.5217 31.6252,-32.126 -0.651969,-65.6764 10.4114,-119.255 28.3252,-162.92 21.5351,-52.4918 53.1579,-90.8741 86.1024,-118.782z"/>
  <path class="fil0" d="M1025.08 724.977c98.6316,0 187.335,52.5343 251.013,137.466 61.7292,82.3347 99.9107,195.48 99.9107,319.915 0,124.435 -38.1815,237.58 -99.9107,319.916 -63.678,84.932 -152.381,137.466 -251.013,137.466 -98.6316,0 -187.335,-52.5343 -251.013,-137.466 -61.7292,-82.3359 -99.9107,-195.481 -99.9107,-319.916 0,-124.435 38.1815,-237.58 99.9107,-319.915 63.678,-84.932 152.381,-137.466 251.013,-137.466z"/>
 </g>
 <rect class="fil1" width="2048" height="2048"/>
</svg>
